<svg xmlns="http://www.w3.org/2000/svg" viewBox="0 0 64 64">
  <defs>
    <linearGradient id="shieldGradient" x1="12" y1="8" x2="52" y2="56" gradientUnits="userSpaceOnUse">
      <stop offset="0" stop-color="#1a3a4b" />
      <stop offset="1" stop-color="#0d5f5e" />
    </linearGradient>
  </defs>
  <path
    d="M32 6 52 14v15c0 14.6-8.4 23.4-20 29-11.6-5.6-20-14.4-20-29V14Z"
    fill="url(#shieldGradient)"
  />
  <path
    d="M32 15c-7.9 0-14 5.8-14 13.5 0 8.1 6.2 13.8 14 19.2 7.8-5.4 14-11.1 14-19.2C46 20.8 39.9 15 32 15Zm0 5.8c3.7 0 6.6 2.9 6.6 6.4 0 3.4-2.9 6.4-6.6 6.4s-6.6-3-6.6-6.4c0-3.5 2.9-6.4 6.6-6.4Z"
    fill="#f7f3ed"
    opacity=".94"
  />
</svg>
